<svg xmlns="http://www.w3.org/2000/svg" class="sc-4ba21b47-0 brakPB" color="secondary" viewBox="0 0 24 24"><path fill-rule="evenodd" d="m4.1534 13.6089.0002.0011c.6196 3.2013 3.2685 5.7577 6.4934 6.2753l.0032.0005c2.391.3878 4.6123-.2755 6.292-1.6025-5.5873-1.9955-8.9674-7.9309-7.6795-13.7951-3.5642 1.2837-5.9045 5.0242-5.1093 9.1207Zm5.8549-11.3984c-5.242 1.0428-8.9093 6.159-7.8182 11.7796.78 4.03 4.09 7.22 8.14 7.87 3.5211.571 6.7654-.6993 8.9361-3.0014l.0306-.0326c.1417-.1516.2789-.3077.4111-.468l.0077-.0094c.1697-.2061.3313-.4192.4845-.6386.21-.31.04-.75-.33-.79a10.2006 10.2006 0 0 1-1.1149-.1888 9.7585 9.7585 0 0 1-.2614-.0632l-.0056-.0014c-5.4648-1.402-8.763-7.1866-7.034-12.6325l.002-.0061a9.7907 9.7907 0 0 1 .099-.2953l.0039-.011c.1177-.3326.2545-.6635.411-.9918.16-.34-.12-.72-.5-.7a10.1322 10.1322 0 0 0-.814.0737l-.0133.0017a9.9917 9.9917 0 0 0-.6345.1051Z" clip-rule="evenodd" fill="#9a6aff"/></svg>