<svg xmlns="http://www.w3.org/2000/svg" class="sc-4ba21b47-0 joVAFt" color="warning" viewBox="0 0 24 24"><path d="m5.66 4.2.39.39c.39.38.39 1.02 0 1.4L6.04 6c-.39.39-1.01.39-1.4 0l-.39-.39c-.39-.38-.39-1.01 0-1.4l.01-.01c.38-.38 1.01-.39 1.4 0ZM1.99 10.95h1.02c.55 0 .99.44.99 1v.01c0 .55-.44.99-1 .98H1.99c-.55 0-.99-.44-.99-.99v-.01c0-.55.44-.99.99-.99ZM12 1h.01c.55 0 .99.44.99.99v.97c0 .55-.44.99-1 .98h-.01c-.55 0-.99-.44-.99-.99v-.96c0-.55.44-.99 1-.99ZM18.34 4.2c.39-.38 1.02-.38 1.41.01.39.39.39 1.01 0 1.4l-.39.39c-.38.39-1.01.39-1.4 0l-.01-.01c-.39-.38-.39-1.01 0-1.4l.39-.39ZM18.33 19.7l-.39-.39c-.39-.39-.39-1.01.01-1.41.38-.38 1.01-.39 1.4 0l.39.39c.39.39.39 1.02 0 1.41-.39.39-1.02.39-1.41 0ZM20 11.95v-.01c0-.55.44-.99.99-.99H22c.55 0 .99.44.99.99v.01c0 .55-.44.99-.99.99h-1.01c-.55 0-.99-.44-.99-.99Z" fill="#ffb237"/><path fill-rule="evenodd" d="M6 11.95c0-3.31 2.69-6 6-6s6 2.69 6 6-2.69 6-6 6-6-2.69-6-6ZM12 16c2.2091 0 4-1.7909 4-4 0-2.2091-1.7909-4-4-4-2.2091 0-4 1.7909-4 4 0 2.2091 1.7909 4 4 4Z" clip-rule="evenodd" fill="#ffb237"/><path d="M12 22.9h-.01c-.55 0-.99-.44-.99-.99v-.96c0-.55.44-.99.99-.99H12c.55 0 .99.44.99.99v.96c0 .55-.44.99-.99.99ZM5.66 19.69c-.39.39-1.02.39-1.41 0-.39-.39-.39-1.01-.01-1.41l.39-.39c.39-.39 1.02-.39 1.41 0l.01.01c.38.38.39 1.01 0 1.4l-.39.39Z" fill="#ffb237"/></svg>